<svg height="490pt" viewBox="-10 0 490 490.00752" width="490pt" xmlns="http://www.w3.org/2000/svg"><path d="m223.109375 229.382812h.671875c35.949219-.363281 64.796875-29.800781 64.433594-65.753906l-.550782-54.277344c-.320312-27.582031-22.898437-49.707031-50.480468-49.464843l-62.089844.632812c-10.007812.113281-18.035156 8.308594-17.945312 18.316407l.875 86.113281c.402343 35.671875 29.410156 64.390625 65.085937 64.433593zm-30.882813-126c-7.894531 3.351563-14.953124 8.398438-20.679687 14.777344l-.382813-37.5625c6.222657 8.296875 13.28125 15.929688 21.0625 22.785156zm67.390626 96.667969c-9.464844 9.710938-22.421876 15.230469-35.980469 15.332031h-.527344c-28.003906-.039062-50.773437-22.578124-51.09375-50.578124l-.21875-21.5c1.726563-4.191407 11.414063-25.105469 34.171875-29.511719 14.695312 9.511719 29.933594 14.324219 45.257812 14.324219 7.664063-.027344 15.277344-1.210938 22.589844-3.507813l.398438 39.160156c.179687 13.558594-5.078125 26.621094-14.597656 36.28125zm-22.292969-126.167969h.371093c19.714844.027344 35.746094 15.894532 35.96875 35.609376v.398437c-22.714843 8.550781-45.378906 4.167969-67.425781-13.070313-8.246093-6.5625-15.679687-14.082031-22.148437-22.398437zm0 0"/><path d="m453.949219 227c-.003907-91.8125-55.308594-174.585938-140.132813-209.71875-84.824218-35.136719-182.460937-15.714844-247.382812 49.207031-78.121094 78.183594-88.585938 201.261719-24.789063 291.515625 63.792969 90.253906 183.3125 121.453125 283.082031 73.894532l-2.007812 47.714843c-.003906.097657-.007812.195313-.007812.292969-.007813 3.933594 2.265624 7.515625 5.832031 9.179688 3.554687 1.640624 7.742187 1.035156 10.683593-1.550782l43.722657-37.667968 43.734375 37.6875c1.808594 1.574218 4.125 2.441406 6.523437 2.453124 1.433594-.003906 2.847657-.316406 4.144531-.917968 3.566407-1.664063 5.839844-5.246094 5.832032-9.179688 0-.097656-.003906-.195312-.007813-.292968l-4.148437-98.488282c35.816406-30.152344 41.289062-83.269531 12.375-120.09375 1.691406-11.265625 2.542968-22.640625 2.546875-34.035156zm-440 0c0-117.449219 95.550781-213 213-213 117.445312 0 213 95.550781 213 213 0 7.046875-.355469 14.109375-1.042969 21.113281-32.398438-27.3125-79.785156-27.246093-112.105469.160157-10.070312-5.484376-21.378906-8.296876-32.847656-8.15625l-14.667969.148437c-3.132812.03125-5.859375 2.136719-6.683594 5.15625l-17.96875 65.867187-14.632812-25.515624 10.375-34.339844c.644531-2.132813.234375-4.445313-1.101562-6.226563-1.339844-1.78125-3.445313-2.820312-5.671876-2.796875l-37.09375.375c-2.226562.023438-4.3125 1.105469-5.613281 2.914063-1.300781 1.808593-1.660156 4.128906-.972656 6.246093l11.105469 34.230469-12.285156 24.3125-17.464844-65.324219c-.882813-3.296874-4.007813-5.476562-7.40625-5.164062l-16.25 1.5c-18.933594.273438-36.875 8.5-49.4375 22.667969s-18.582032 32.96875-16.582032 51.796875l.773438 76.007812c-49.632812-40.390625-78.433594-100.984375-78.425781-164.972656zm213.269531 52.671875-3.570312.035156-7.46875-23.019531 18.039062-.183594zm-.269531 160.328125c-43.027344.046875-85.046875-13.011719-120.46875-37.4375l-.882813-87.082031c-.003906-.238281-.015625-.472657-.042968-.707031-1.671876-14.996094 3.082031-30 13.085937-41.296876 10.007813-11.292968 24.324219-17.828124 39.414063-17.980468.191406 0 .382812-.011719.570312-.027344l10.648438-.980469 20.675781 77.335938c.71875 2.699219 2.980469 4.710937 5.746093 5.117187 2.765626.402344 5.507813-.875 6.976563-3.257812.101563-.167969.199219-.339844.289063-.519532l19.9375-39.445312 5.480468-.054688 22.492188 39.21875c1.40625 2.457032 4.152344 3.820313 6.960937 3.460938 2.804688-.359375 5.117188-2.371094 5.863281-5.097656l21.015626-77.035156 9.378906-.101563c7.671875-.089844 15.273437 1.484375 22.28125 4.613281-30.910156 36.695313-26.210938 91.5 10.492187 122.398438l-1.460937 34.777344c-30.40625 15.828124-64.175782 24.09375-98.453125 24.101562zm201.847656 30.898438-39.097656-33.6875c-3.785157-3.59375-9.71875-3.59375-13.5 0l-39.101563 33.691406 3.382813-80.316406c26.378906 14.792968 58.554687 14.792968 84.933593 0zm-45.847656-83.226563c-29.664063.019531-56.382813-17.921875-67.589844-45.382813-11.210937-27.460937-4.675781-58.972656 16.523437-79.714843.46875-.347657.894532-.75 1.261719-1.199219 23.914063-22.347656 59.777344-26.039062 87.742188-9.039062 27.964843 17.003906 41.191406 50.546874 32.355469 82.058593-8.835938 31.515625-37.570313 53.292969-70.296876 53.277344zm0 0"/><path d="m419.304688 280.632812-47.96875 47.972657-24.726563-24.964844c-1.753906-1.804687-4.339844-2.527344-6.773437-1.894531-2.433594.632812-4.34375 2.523437-5 4.949218-.65625 2.429688.042968 5.023438 1.828124 6.796876l29.671876 29.960937c1.3125 1.324219 3.097656 2.070313 4.957031 2.074219h.019531c1.855469 0 3.636719-.738282 4.949219-2.050782l52.945312-52.945312c2.734375-2.734375 2.734375-7.164062 0-9.898438-2.734375-2.734374-7.164062-2.734374-9.898437 0zm0 0"/></svg>